<svg stroke-miterlimit="10" style="fill-rule:nonzero;clip-rule:evenodd;stroke-linecap:round;stroke-linejoin:round" viewBox="0 0 744 100" xml:space="preserve" xmlns="http://www.w3.org/2000/svg" xmlns:vectornator="http://vectornator.io"><defs><clipPath id="b"><path d="M96.116-81.275h650.73v262H96.116z"/></clipPath></defs><clipPath id="a"><path d="M0 0h744v100H0z"/></clipPath><g clip-path="url(#a)" vectornator:layerName="Ebene 1"><g fill="none" stroke="#baddd5" stroke-linecap="butt" stroke-linejoin="miter" stroke-width="9.156"><path d="M4.578 4.578H65.14v90.846H4.578V4.578Z"/><path d="M19.662 22.881h30.24v17.9h-30.24v-17.9ZM65.14 53.027h12.114v18.17s6.056 12.112 12.112 0V40.914l-14.901.097"/></g><g fill="#baddd5" fill-rule="evenodd"><path clip-path="url(#b)" d="M139.061 7.33c16.47 0 20.25 10.665 22.14 20.115l8.64-1.08C167.546 6.52 155.666-.77 138.656-.77c-18.495 0-31.86 10.125-31.86 25.92 0 19.44 14.985 23.76 29.16 27.675 12.69 3.51 24.84 7.02 24.84 21.06 0 14.715-12.555 18.63-23.76 18.63-17.685 0-23.085-9.72-25.65-20.655l-9.045 1.35c2.835 17.685 13.095 27.135 34.695 27.135 17.55 0 33.345-7.695 33.345-27.675 0-18.225-14.715-22.815-28.89-27-12.825-3.78-25.11-7.425-25.11-20.925 0-9.72 5.805-17.415 22.68-17.415ZM200.486 61.465h16.47c22.815 0 36.99-8.64 36.99-31.725 0-15.525-7.56-28.755-32.535-28.755h-29.835v97.74h8.91v-37.26Zm0-7.965V8.815h12.15c21.735 0 31.86 3.375 31.86 21.195 0 20.115-12.285 23.49-27.81 23.49h-16.2ZM317.666 54.31c11.88-3.645 19.71-12.42 19.71-27.135 0-12.96-7.02-26.19-31.32-26.19h-31.59v97.74h8.91v-42.12h25.65l23.49 42.12h9.855L317.666 54.31Zm-34.29-5.535V8.815h19.17c15.255 0 25.38 3.375 25.38 18.495 0 16.605-9.18 21.465-23.355 21.465h-21.195ZM368.966.985h-9.045v97.74h9.045V.985ZM424.046 98.725V8.815h29.7V.985h-68.58v7.83h29.835v89.91h9.045ZM494.516 7.33c16.47 0 20.25 10.665 22.14 20.115l8.64-1.08C523.001 6.52 511.121-.77 494.111-.77c-18.495 0-31.86 10.125-31.86 25.92 0 19.44 14.985 23.76 29.16 27.675 12.69 3.51 24.84 7.02 24.84 21.06 0 14.715-12.555 18.63-23.76 18.63-17.685 0-23.085-9.72-25.65-20.655l-9.045 1.35c2.835 17.685 13.095 27.135 34.695 27.135 17.55 0 33.345-7.695 33.345-27.675 0-18.225-14.715-22.815-28.89-27-12.825-3.78-25.11-7.425-25.11-20.925 0-9.72 5.805-17.415 22.68-17.415ZM571.061 98.725V8.815h29.7V.985h-68.58v7.83h29.835v89.91h9.045ZM631.271.985l-33.21 97.74h8.91l10.53-31.455h39.42l10.53 31.455h9.99L643.691.985h-12.42Zm23.085 58.32h-34.155L637.346 8.41l17.01 50.895ZM713.621 98.725V8.815h29.7V.985h-68.58v7.83h29.835v89.91h9.045Z"/></g></g></svg>